<?xml version="1.0" encoding="UTF-8"?>
<svg xmlns="http://www.w3.org/2000/svg" xmlns:xlink="http://www.w3.org/1999/xlink" width="120px" height="48px" viewBox="0 0 119 48" version="1.1">
<g id="surface1">
<rect x="0" y="0" width="119" height="48" style="fill:rgb(92.941176%,11.372549%,14.117647%);fill-opacity:1;stroke:none;"/>
<path style=" stroke:none;fill-rule:nonzero;fill:rgb(100%,100%,100%);fill-opacity:1;" d="M 100.703125 11.199219 L 100.703125 3.84375 L 80.304688 3.84375 L 76.949219 28.417969 L 73.632812 3.84375 L 66.273438 3.84375 L 67.097656 10.402344 C 66.25 8.722656 63.238281 3.84375 56.609375 3.84375 C 56.566406 3.839844 49.242188 3.84375 49.242188 3.84375 L 49.214844 39.660156 L 43.851562 3.84375 L 34.21875 3.839844 L 28.671875 40.949219 L 28.675781 3.84375 L 19.453125 3.84375 L 16.128906 24.6875 L 12.894531 3.84375 L 3.667969 3.84375 L 3.667969 44.191406 L 10.933594 44.191406 L 10.933594 24.742188 L 14.238281 44.191406 L 18.097656 44.191406 L 21.355469 24.742188 L 21.355469 44.191406 L 35.359375 44.191406 L 36.207031 37.980469 L 41.84375 37.980469 L 42.691406 44.191406 L 56.4375 44.199219 L 56.449219 44.199219 L 56.449219 44.191406 L 56.46875 44.191406 L 56.46875 31.09375 L 58.152344 30.847656 L 61.640625 44.199219 L 68.75 44.199219 L 68.75 44.191406 L 68.769531 44.191406 L 64.191406 28.542969 C 66.511719 26.820312 69.132812 22.445312 68.433594 18.261719 C 68.441406 18.316406 72.757812 44.214844 72.757812 44.214844 L 81.210938 44.191406 L 86.992188 7.617188 L 86.992188 44.191406 L 100.703125 44.191406 L 100.703125 36.933594 L 94.195312 36.933594 L 94.195312 27.679688 L 100.703125 27.679688 L 100.703125 20.3125 L 94.195312 20.3125 L 94.195312 11.199219 Z M 37.0625 31.582031 L 39.058594 14.335938 L 41.128906 31.582031 Z M 58.175781 23.617188 C 57.617188 23.890625 57.035156 24.027344 56.46875 24.027344 L 56.46875 11.050781 C 56.476562 11.050781 56.488281 11.046875 56.503906 11.046875 C 57.070312 11.042969 61.3125 11.21875 61.3125 17.46875 C 61.3125 20.734375 59.871094 22.792969 58.175781 23.617188 M 115.339844 36.929688 L 115.339844 44.183594 L 101.960938 44.183594 L 101.960938 3.839844 L 109.164062 3.839844 L 109.164062 36.929688 Z M 115.339844 36.929688 "/>
</g>
</svg>
