<?xml version="1.0" encoding="UTF-8"?>
<svg xmlns="http://www.w3.org/2000/svg" xmlns:xlink="http://www.w3.org/1999/xlink" width="100px" height="40px" viewBox="0 0 99 40" version="1.1">
<g id="surface1">
<rect x="0" y="0" width="99" height="40" style="fill:rgb(92.941176%,11.372549%,14.117647%);fill-opacity:1;stroke:none;"/>
<path style=" stroke:none;fill-rule:nonzero;fill:rgb(100%,100%,100%);fill-opacity:1;" d="M 83.777344 9.332031 L 83.777344 3.203125 L 66.808594 3.203125 L 64.019531 23.679688 L 61.257812 3.203125 L 55.136719 3.203125 L 55.820312 8.667969 C 55.113281 7.265625 52.609375 3.203125 47.09375 3.203125 C 47.058594 3.199219 40.96875 3.203125 40.96875 3.203125 L 40.945312 33.050781 L 36.484375 3.203125 L 28.46875 3.199219 L 23.851562 34.125 L 23.855469 3.203125 L 16.183594 3.203125 L 13.417969 20.574219 L 10.726562 3.203125 L 3.050781 3.203125 L 3.050781 36.824219 L 9.09375 36.824219 L 9.09375 20.621094 L 11.84375 36.824219 L 15.054688 36.824219 L 17.765625 20.621094 L 17.765625 36.824219 L 29.414062 36.824219 L 30.121094 31.652344 L 34.8125 31.652344 L 35.515625 36.824219 L 46.953125 36.832031 L 46.960938 36.832031 L 46.960938 36.824219 L 46.976562 36.824219 L 46.976562 25.910156 L 48.378906 25.707031 L 51.28125 36.832031 L 57.195312 36.832031 L 57.195312 36.824219 L 57.210938 36.824219 L 53.402344 23.785156 C 55.332031 22.347656 57.511719 18.707031 56.933594 15.21875 L 56.933594 15.214844 C 56.941406 15.265625 60.527344 36.847656 60.527344 36.847656 L 67.5625 36.824219 L 72.371094 6.347656 L 72.371094 36.824219 L 83.78125 36.824219 L 83.78125 30.777344 L 78.363281 30.777344 L 78.363281 23.066406 L 83.78125 23.066406 L 83.78125 16.929688 L 78.363281 16.929688 L 78.363281 9.332031 Z M 30.835938 26.320312 L 32.492188 11.945312 L 34.214844 26.320312 Z M 48.398438 19.683594 C 47.933594 19.910156 47.449219 20.023438 46.976562 20.023438 L 46.976562 9.207031 C 46.984375 9.207031 46.996094 9.207031 47.007812 9.207031 C 47.480469 9.203125 51.007812 9.347656 51.007812 14.554688 C 51.007812 17.28125 49.808594 18.996094 48.398438 19.683594 M 95.953125 30.773438 L 95.953125 36.820312 L 84.824219 36.820312 L 84.824219 3.199219 L 90.816406 3.199219 L 90.816406 30.773438 Z M 95.953125 30.773438 "/>
</g>
</svg>
